<mxfile host="app.diagrams.net" modified="2020-10-24T18:25:31.666Z" agent="5.0 (Macintosh; Intel Mac OS X 10_15_7) AppleWebKit/537.36 (KHTML, like Gecko) Chrome/86.0.4240.111 Safari/537.36" etag="wfSdzkbxpbJ77WLEYT3J" version="13.8.1" type="github">
  <diagram id="piDafpqhtRUU5qUU-vj8" name="Page-1">
    <mxGraphModel dx="1298" dy="736" grid="1" gridSize="10" guides="1" tooltips="1" connect="1" arrows="1" fold="1" page="1" pageScale="1" pageWidth="827" pageHeight="1169" math="0" shadow="0">
      <root>
        <mxCell id="0" />
        <mxCell id="1" parent="0" />
        <mxCell id="8962rQQDY3VNNf6We3Pp-1" value="" style="strokeWidth=1;shadow=0;dashed=0;align=center;html=1;shape=mxgraph.mockup.containers.browserWindow;rSize=0;strokeColor2=#008cff;strokeColor3=#c4c4c4;mainText=,;recursiveResize=0;strokeColor=#FFFFFF;fontColor=#FFFFFF;" parent="1" vertex="1">
          <mxGeometry x="160" y="60" width="870" height="700" as="geometry" />
        </mxCell>
        <mxCell id="8962rQQDY3VNNf6We3Pp-2" value="Page 1" style="strokeWidth=1;shadow=0;dashed=0;align=center;html=1;shape=mxgraph.mockup.containers.anchor;fontSize=17;fontColor=#666666;align=left;" parent="8962rQQDY3VNNf6We3Pp-1" vertex="1">
          <mxGeometry x="60" y="12" width="110" height="26" as="geometry" />
        </mxCell>
        <mxCell id="8962rQQDY3VNNf6We3Pp-3" value="https://opendesk.com" style="strokeWidth=1;shadow=0;dashed=0;align=center;html=1;shape=mxgraph.mockup.containers.anchor;rSize=0;fontSize=17;fontColor=#666666;align=left;" parent="8962rQQDY3VNNf6We3Pp-1" vertex="1">
          <mxGeometry x="130" y="60" width="250" height="26" as="geometry" />
        </mxCell>
        <mxCell id="8962rQQDY3VNNf6We3Pp-4" value="" style="verticalLabelPosition=bottom;shadow=0;dashed=0;align=center;html=1;verticalAlign=top;strokeWidth=1;shape=mxgraph.mockup.containers.videoPlayer;strokeColor=#666666;strokeColor2=#008cff;strokeColor3=#c4c4c4;textColor=#666666;fillColor2=#008cff;barHeight=30;barPos=20;" parent="8962rQQDY3VNNf6We3Pp-1" vertex="1">
          <mxGeometry y="110" width="910" height="590" as="geometry" />
        </mxCell>
        <mxCell id="8962rQQDY3VNNf6We3Pp-16" value="Open Desk" style="text;html=1;strokeColor=none;fillColor=none;align=center;verticalAlign=middle;whiteSpace=wrap;rounded=0;fontSize=13;fontColor=#0066CC;" parent="8962rQQDY3VNNf6We3Pp-1" vertex="1">
          <mxGeometry x="60" y="133.5" width="100" height="20" as="geometry" />
        </mxCell>
        <mxCell id="seymav8gBYocV3_De4xC-2" value="d" style="text;html=1;align=center;verticalAlign=middle;resizable=0;points=[];autosize=1;fontSize=37;fontFamily=Tahoma;fillColor=#008CFF;fontColor=#FFFFFF;" parent="8962rQQDY3VNNf6We3Pp-1" vertex="1">
          <mxGeometry x="10" y="115" width="40" height="50" as="geometry" />
        </mxCell>
        <mxCell id="x9dJS3snekuaHJ1mESHE-1" value="&lt;b&gt;&lt;font style=&quot;font-size: 15px&quot;&gt;Organization Onboarding&lt;/font&gt;&lt;/b&gt;" style="text;html=1;strokeColor=none;fillColor=none;align=center;verticalAlign=middle;whiteSpace=wrap;rounded=0;fontSize=13;fontColor=#0066CC;" parent="8962rQQDY3VNNf6We3Pp-1" vertex="1">
          <mxGeometry x="325" y="130" width="185" height="20" as="geometry" />
        </mxCell>
        <mxCell id="x9dJS3snekuaHJ1mESHE-2" value="" style="verticalLabelPosition=bottom;shadow=0;dashed=0;align=center;html=1;verticalAlign=top;strokeWidth=1;shape=mxgraph.mockup.containers.userMale;strokeColor=#666666;strokeColor2=#008cff;" parent="8962rQQDY3VNNf6We3Pp-1" vertex="1">
          <mxGeometry x="100" y="220" width="100" height="100" as="geometry" />
        </mxCell>
        <mxCell id="x9dJS3snekuaHJ1mESHE-3" value="Company Logo" style="text;html=1;strokeColor=none;fillColor=none;align=center;verticalAlign=middle;whiteSpace=wrap;rounded=0;fontSize=13;fontColor=#0066CC;" parent="8962rQQDY3VNNf6We3Pp-1" vertex="1">
          <mxGeometry x="100" y="320" width="100" height="20" as="geometry" />
        </mxCell>
        <mxCell id="x9dJS3snekuaHJ1mESHE-4" value="R Corp Limited" style="strokeWidth=1;shadow=0;dashed=0;align=center;html=1;shape=mxgraph.mockup.text.textBox;fontColor=#666666;align=left;fontSize=17;spacingLeft=4;spacingTop=-3;strokeColor=#666666;mainText=" parent="8962rQQDY3VNNf6We3Pp-1" vertex="1">
          <mxGeometry x="360" y="230" width="150" height="30" as="geometry" />
        </mxCell>
        <mxCell id="x9dJS3snekuaHJ1mESHE-11" value="&lt;font style=&quot;font-size: 20px&quot; color=&quot;#333333&quot;&gt;Name:&lt;/font&gt;" style="text;html=1;strokeColor=none;fillColor=none;align=center;verticalAlign=middle;whiteSpace=wrap;rounded=0;fontSize=13;fontColor=#0066CC;" parent="8962rQQDY3VNNf6We3Pp-1" vertex="1">
          <mxGeometry x="240" y="235" width="100" height="20" as="geometry" />
        </mxCell>
        <mxCell id="x9dJS3snekuaHJ1mESHE-12" value="&lt;font style=&quot;font-size: 20px&quot; color=&quot;#333333&quot;&gt;Location:&lt;/font&gt;" style="text;html=1;strokeColor=none;fillColor=none;align=center;verticalAlign=middle;whiteSpace=wrap;rounded=0;fontSize=13;fontColor=#0066CC;" parent="8962rQQDY3VNNf6We3Pp-1" vertex="1">
          <mxGeometry x="240" y="280" width="100" height="20" as="geometry" />
        </mxCell>
        <mxCell id="x9dJS3snekuaHJ1mESHE-13" value="DLF Cyber City, Gurugram, Haryana&amp;nbsp;" style="strokeWidth=1;shadow=0;dashed=0;align=center;html=1;shape=mxgraph.mockup.text.textBox;fontColor=#666666;align=left;fontSize=17;spacingLeft=4;spacingTop=-3;strokeColor=#666666;mainText=" parent="8962rQQDY3VNNf6We3Pp-1" vertex="1">
          <mxGeometry x="360" y="275" width="290" height="25" as="geometry" />
        </mxCell>
        <mxCell id="x9dJS3snekuaHJ1mESHE-14" value="" style="strokeWidth=1;shadow=0;dashed=0;align=center;html=1;shape=mxgraph.mockup.containers.marginRect2;rectMarginTop=32;strokeColor=#666666;gradientColor=none;" parent="8962rQQDY3VNNf6We3Pp-1" vertex="1">
          <mxGeometry x="90" y="380" width="770" height="230" as="geometry" />
        </mxCell>
        <mxCell id="x9dJS3snekuaHJ1mESHE-15" value="Site 1" style="strokeColor=inherit;fillColor=inherit;gradientColor=inherit;strokeWidth=1;shadow=0;dashed=0;align=center;html=1;shape=mxgraph.mockup.containers.rrect;rSize=0;fontSize=17;fontColor=#666666;gradientColor=none;" parent="x9dJS3snekuaHJ1mESHE-14" vertex="1">
          <mxGeometry width="60" height="25" relative="1" as="geometry">
            <mxPoint x="10" as="offset" />
          </mxGeometry>
        </mxCell>
        <mxCell id="x9dJS3snekuaHJ1mESHE-16" value="Site 2" style="strokeWidth=1;shadow=0;dashed=0;align=center;html=1;shape=mxgraph.mockup.containers.rrect;rSize=0;fontSize=17;fontColor=#ffffff;strokeColor=#008cff;fillColor=#008cff;" parent="x9dJS3snekuaHJ1mESHE-14" vertex="1">
          <mxGeometry width="60" height="25" relative="1" as="geometry">
            <mxPoint x="75" as="offset" />
          </mxGeometry>
        </mxCell>
        <mxCell id="x9dJS3snekuaHJ1mESHE-17" value="Site 3" style="strokeColor=inherit;fillColor=inherit;gradientColor=inherit;strokeWidth=1;shadow=0;dashed=0;align=center;html=1;shape=mxgraph.mockup.containers.rrect;rSize=0;fontSize=17;fontColor=#666666;gradientColor=none;" parent="x9dJS3snekuaHJ1mESHE-14" vertex="1">
          <mxGeometry width="60" height="25" relative="1" as="geometry">
            <mxPoint x="140" as="offset" />
          </mxGeometry>
        </mxCell>
        <mxCell id="x9dJS3snekuaHJ1mESHE-18" value="" style="strokeWidth=1;shadow=0;dashed=0;align=center;html=1;shape=mxgraph.mockup.containers.topButton;rSize=5;strokeColor=#008cff;fillColor=#008cff;gradientColor=none;resizeWidth=1;movable=0;deletable=1;" parent="x9dJS3snekuaHJ1mESHE-14" vertex="1">
          <mxGeometry width="770" height="7" relative="1" as="geometry">
            <mxPoint y="25" as="offset" />
          </mxGeometry>
        </mxCell>
        <mxCell id="x9dJS3snekuaHJ1mESHE-37" value="" style="strokeWidth=1;shadow=0;dashed=0;align=center;html=1;shape=mxgraph.mockup.containers.marginRect2;rectMarginLeft=67;strokeColor=#666666;gradientColor=none;" parent="x9dJS3snekuaHJ1mESHE-14" vertex="1">
          <mxGeometry x="-60" y="30" width="830" height="200" as="geometry" />
        </mxCell>
        <mxCell id="x9dJS3snekuaHJ1mESHE-38" value="Floor 1" style="strokeColor=inherit;fillColor=inherit;gradientColor=inherit;strokeWidth=1;shadow=0;dashed=0;align=center;html=1;shape=mxgraph.mockup.containers.rrect;rSize=0;fontSize=17;fontColor=#666666;" parent="x9dJS3snekuaHJ1mESHE-37" vertex="1">
          <mxGeometry width="60" height="25" relative="1" as="geometry">
            <mxPoint y="10" as="offset" />
          </mxGeometry>
        </mxCell>
        <mxCell id="x9dJS3snekuaHJ1mESHE-39" value="Floor 2" style="strokeWidth=1;shadow=0;dashed=0;align=center;html=1;shape=mxgraph.mockup.containers.rrect;rSize=0;fontSize=17;fontColor=#ffffff;strokeColor=#008cff;fillColor=#008cff;" parent="x9dJS3snekuaHJ1mESHE-37" vertex="1">
          <mxGeometry width="60" height="25" relative="1" as="geometry">
            <mxPoint y="40" as="offset" />
          </mxGeometry>
        </mxCell>
        <mxCell id="x9dJS3snekuaHJ1mESHE-40" value="Floor 3" style="strokeColor=inherit;fillColor=inherit;gradientColor=inherit;strokeWidth=1;shadow=0;dashed=0;align=center;html=1;shape=mxgraph.mockup.containers.rrect;rSize=0;fontSize=17;fontColor=#666666;" parent="x9dJS3snekuaHJ1mESHE-37" vertex="1">
          <mxGeometry width="60" height="25" relative="1" as="geometry">
            <mxPoint y="70" as="offset" />
          </mxGeometry>
        </mxCell>
        <mxCell id="x9dJS3snekuaHJ1mESHE-41" value="" style="strokeWidth=1;shadow=0;dashed=0;align=center;html=1;shape=mxgraph.mockup.containers.leftButton;rSize=5;strokeColor=#008cff;fillColor=#008cff;resizeHeight=1;movable=0;deletable=0;" parent="x9dJS3snekuaHJ1mESHE-37" vertex="1">
          <mxGeometry width="7" height="200" relative="1" as="geometry">
            <mxPoint x="60" as="offset" />
          </mxGeometry>
        </mxCell>
        <mxCell id="x9dJS3snekuaHJ1mESHE-50" value="&lt;font color=&quot;#333333&quot;&gt;&lt;span style=&quot;font-size: 20px&quot;&gt;Open Desk:&lt;/span&gt;&lt;/font&gt;" style="text;html=1;strokeColor=none;fillColor=none;align=center;verticalAlign=middle;whiteSpace=wrap;rounded=0;fontSize=13;fontColor=#0066CC;" parent="x9dJS3snekuaHJ1mESHE-37" vertex="1">
          <mxGeometry x="69.99935483870968" y="130" width="124.19354838709677" height="20" as="geometry" />
        </mxCell>
        <mxCell id="x9dJS3snekuaHJ1mESHE-51" value="200" style="strokeWidth=1;shadow=0;dashed=0;align=center;html=1;shape=mxgraph.mockup.text.textBox;align=left;fontSize=17;spacingLeft=4;spacingTop=-3;strokeColor=#82b366;mainText=;fillColor=#d5e8d4;" parent="x9dJS3snekuaHJ1mESHE-37" vertex="1">
          <mxGeometry x="194.19" y="122.5" width="50" height="35" as="geometry" />
        </mxCell>
        <mxCell id="x9dJS3snekuaHJ1mESHE-52" value="Save" style="strokeWidth=1;shadow=0;dashed=0;align=center;html=1;shape=mxgraph.mockup.buttons.button;strokeColor=#666666;fontColor=#ffffff;mainText=;buttonStyle=round;fontSize=17;fontStyle=1;fillColor=#008cff;whiteSpace=wrap;" parent="x9dJS3snekuaHJ1mESHE-37" vertex="1">
          <mxGeometry x="650" y="140" width="80" height="35" as="geometry" />
        </mxCell>
        <mxCell id="x9dJS3snekuaHJ1mESHE-29" value="" style="verticalLabelPosition=bottom;shadow=0;dashed=0;align=center;html=1;verticalAlign=top;strokeWidth=1;shape=mxgraph.mockup.forms.colorPicker;chosenColor=#aaddff;" parent="8962rQQDY3VNNf6We3Pp-1" vertex="1">
          <mxGeometry x="290" y="375" width="30" height="30" as="geometry" />
        </mxCell>
        <mxCell id="x9dJS3snekuaHJ1mESHE-30" value="&lt;font color=&quot;#333333&quot;&gt;&lt;span style=&quot;font-size: 20px&quot;&gt;+&lt;/span&gt;&lt;/font&gt;" style="text;html=1;strokeColor=none;fillColor=none;align=center;verticalAlign=middle;whiteSpace=wrap;rounded=0;fontSize=13;fontColor=#0066CC;" parent="8962rQQDY3VNNf6We3Pp-1" vertex="1">
          <mxGeometry x="291.45" y="378" width="27.1" height="24" as="geometry" />
        </mxCell>
        <mxCell id="x9dJS3snekuaHJ1mESHE-42" value="R Corp Limited, Noida" style="strokeWidth=1;shadow=0;dashed=0;align=center;html=1;shape=mxgraph.mockup.text.textBox;fontColor=#666666;align=left;fontSize=17;spacingLeft=4;spacingTop=-3;strokeColor=#666666;mainText=" parent="1" vertex="1">
          <mxGeometry x="340" y="490" width="180" height="30" as="geometry" />
        </mxCell>
        <mxCell id="x9dJS3snekuaHJ1mESHE-43" value="&lt;font style=&quot;font-size: 20px&quot; color=&quot;#333333&quot;&gt;Name:&lt;/font&gt;" style="text;html=1;strokeColor=none;fillColor=none;align=center;verticalAlign=middle;whiteSpace=wrap;rounded=0;fontSize=13;fontColor=#0066CC;" parent="1" vertex="1">
          <mxGeometry x="239.99935483870968" y="495" width="124.19354838709677" height="20" as="geometry" />
        </mxCell>
        <mxCell id="x9dJS3snekuaHJ1mESHE-44" value="&lt;font style=&quot;font-size: 20px&quot; color=&quot;#333333&quot;&gt;Location:&lt;/font&gt;" style="text;html=1;strokeColor=none;fillColor=none;align=center;verticalAlign=middle;whiteSpace=wrap;rounded=0;fontSize=13;fontColor=#0066CC;" parent="1" vertex="1">
          <mxGeometry x="519.9967741935484" y="495" width="124.19354838709677" height="20" as="geometry" />
        </mxCell>
        <mxCell id="x9dJS3snekuaHJ1mESHE-45" value="DLF Cyber City, Gurugram, Haryana&amp;nbsp;" style="strokeWidth=1;shadow=0;dashed=0;align=center;html=1;shape=mxgraph.mockup.text.textBox;fontColor=#666666;align=left;fontSize=17;spacingLeft=4;spacingTop=-3;strokeColor=#666666;mainText=" parent="1" vertex="1">
          <mxGeometry x="629.9990322580645" y="492.5" width="360.16129032258067" height="25" as="geometry" />
        </mxCell>
        <mxCell id="x9dJS3snekuaHJ1mESHE-46" value="250" style="strokeWidth=1;shadow=0;dashed=0;align=center;html=1;shape=mxgraph.mockup.forms.spinner;strokeColor=#999999;spinLayout=right;spinStyle=normal;adjStyle=triangle;fillColor=#aaddff;fontSize=17;fontColor=#666666;mainText=;html=1;overflow=fill;" parent="1" vertex="1">
          <mxGeometry x="375" y="540" width="110" height="30" as="geometry" />
        </mxCell>
        <mxCell id="x9dJS3snekuaHJ1mESHE-47" value="&lt;font style=&quot;font-size: 20px&quot; color=&quot;#333333&quot;&gt;Total Desk:&lt;/font&gt;" style="text;html=1;strokeColor=none;fillColor=none;align=center;verticalAlign=middle;whiteSpace=wrap;rounded=0;fontSize=13;fontColor=#0066CC;" parent="1" vertex="1">
          <mxGeometry x="249.99935483870968" y="545" width="124.19354838709677" height="20" as="geometry" />
        </mxCell>
        <mxCell id="x9dJS3snekuaHJ1mESHE-48" value="50" style="strokeWidth=1;shadow=0;dashed=0;align=center;html=1;shape=mxgraph.mockup.forms.spinner;strokeColor=#999999;spinLayout=right;spinStyle=normal;adjStyle=triangle;fillColor=#aaddff;fontSize=17;fontColor=#666666;mainText=;html=1;overflow=fill;" parent="1" vertex="1">
          <mxGeometry x="613" y="540" width="110" height="30" as="geometry" />
        </mxCell>
        <mxCell id="x9dJS3snekuaHJ1mESHE-49" value="&lt;font color=&quot;#333333&quot;&gt;&lt;span style=&quot;font-size: 20px&quot;&gt;Reserved:&lt;/span&gt;&lt;/font&gt;" style="text;html=1;strokeColor=none;fillColor=none;align=center;verticalAlign=middle;whiteSpace=wrap;rounded=0;fontSize=13;fontColor=#0066CC;" parent="1" vertex="1">
          <mxGeometry x="492.9993548387097" y="543" width="124.19354838709677" height="20" as="geometry" />
        </mxCell>
      </root>
    </mxGraphModel>
  </diagram>
</mxfile>
